<svg width="24" height="24" viewBox="0 0 24 24" fill="none" xmlns="http://www.w3.org/2000/svg">
<g clip-path="url(#clip0_1_33)">
<path d="M8.56002 3.69C7.4681 4.14199 6.47588 4.8046 5.64001 5.64" stroke="#383838" stroke-width="2" stroke-linecap="round" stroke-linejoin="round"/>
<path d="M3.69 8.56C3.23656 9.6503 3.0021 10.8192 3 12" stroke="#383838" stroke-width="2" stroke-linecap="round" stroke-linejoin="round"/>
<path d="M3.68994 15.44C4.14193 16.5319 4.80454 17.5241 5.63994 18.36" stroke="#383838" stroke-width="2" stroke-linecap="round" stroke-linejoin="round"/>
<path d="M8.56006 20.31C9.65036 20.7634 10.8192 20.9979 12.0001 21" stroke="#383838" stroke-width="2" stroke-linecap="round" stroke-linejoin="round"/>
<path d="M15.4399 20.31C16.5319 19.858 17.5241 19.1954 18.3599 18.36" stroke="#383838" stroke-width="2" stroke-linecap="round" stroke-linejoin="round"/>
<path d="M20.3101 15.44C20.7635 14.3497 20.998 13.1808 21.0001 12" stroke="#383838" stroke-width="2" stroke-linecap="round" stroke-linejoin="round"/>
<path d="M20.31 8.56C19.858 7.46808 19.1954 6.47587 18.36 5.64" stroke="#383838" stroke-width="2" stroke-linecap="round" stroke-linejoin="round"/>
<path d="M15.44 3.69C14.3497 3.23656 13.1808 3.0021 12 3" stroke="#383838" stroke-width="2" stroke-linecap="round" stroke-linejoin="round"/>
</g>
<defs>
<clipPath id="clip0_1_33">
<rect width="24" height="24" rx="12" fill="white"/>
</clipPath>
</defs>
</svg>
